<svg width="178" height="178" viewBox="0 0 178 178" fill="none" xmlns="http://www.w3.org/2000/svg">
<path d="M89 161C128.765 161 161 128.765 161 89C161 49.2355 128.765 17 89 17C49.2355 17 17 49.2355 17 89C17 128.765 49.2355 161 89 161Z" fill="white"/>
<path d="M89 174.5C41.9 174.5 3.5 136.1 3.5 89C3.5 41.9 41.9 3.5 89 3.5C136.1 3.5 174.5 41.9 174.5 89C174.5 136.1 136.1 174.5 89 174.5ZM89 30.5C56.7 30.5 30.5 56.7 30.5 89C30.5 121.3 56.7 147.5 89 147.5C121.3 147.5 147.5 121.3 147.5 89C147.5 56.7 121.3 30.5 89 30.5Z" fill="#FF8661"/>
<path d="M89 7C134.2 7 171 43.8 171 89C171 134.2 134.2 171 89 171C43.8 171 7 134.2 7 89C7 43.8 43.8 7 89 7ZM89 151C123.2 151 151 123.2 151 89C151 54.8 123.2 27 89 27C54.8 27 27 54.8 27 89C27 123.2 54.8 151 89 151ZM89 0C39.9 0 0 39.9 0 89C0 138.1 39.9 178 89 178C138.1 178 178 138.1 178 89C178 39.9 138.1 0 89 0ZM89 144C58.7 144 34 119.3 34 89C34 58.7 58.7 34 89 34C119.3 34 144 58.7 144 89C144 119.3 119.3 144 89 144Z" fill="white"/>
<path d="M107.6 123C105.7 123 103.9 122.3 102.5 120.9L80.7 99.1C79.3 97.7 78.6 95.9 78.6 94V53.6C78.6 49.6 81.9 46.3 85.9 46.3C89.9 46.3 93.2 49.6 93.2 53.6V91L112.9 110.7C115.7 113.5 115.7 118.2 112.9 121C111.3 122.3 109.5 123 107.6 123Z" fill="#FF8661"/>
</svg>
