<svg width="92" height="51" viewBox="0 0 92 51" fill="none" xmlns="http://www.w3.org/2000/svg">
<path d="M91.2 25.2C91.2 25.2 70.7999 0 45.7 0C20.6 0 0.199951 25.2 0.199951 25.2C0.199951 25.2 20.6 50.4 45.7 50.4C70.7999 50.4 91.2 25.2 91.2 25.2Z" fill="white"/>
<path d="M45.6999 45.0998C56.6351 45.0998 65.4999 36.1902 65.4999 25.1998C65.4999 14.2093 56.6351 5.2998 45.6999 5.2998C34.7647 5.2998 25.8999 14.2093 25.8999 25.1998C25.8999 36.1902 34.7647 45.0998 45.6999 45.0998Z" fill="#FC2F00"/>
<path d="M45.7 47.2998C33.6 47.2998 23.7 37.3998 23.7 25.2998C23.7 13.0998 33.6 3.2998 45.7 3.2998C57.7999 3.2998 67.7 13.1998 67.7 25.2998C67.7 37.3998 57.7999 47.2998 45.7 47.2998ZM45.7 7.49982C36 7.49982 28.0999 15.3998 28.0999 25.1998C28.0999 34.9998 36 42.8998 45.7 42.8998C55.4 42.8998 63.2999 34.9998 63.2999 25.1998C63.2999 15.4998 55.4 7.49982 45.7 7.49982Z" fill="#FC2F00"/>
</svg>
