<svg xmlns="http://www.w3.org/2000/svg" viewBox="0 0 133.1001 203.77002"><g id="Layer_2" data-name="Layer 2"><g id="Layer_1-2" data-name="Layer 1"><path d="M24.12988,75.37012Q26.04956,74.00488,28.04,72.79v-9.99a38.51,38.51,0,1,1,77.02,0v9.99q1.99512,1.22973,3.91992,2.58984a73.273,73.273,0,0,1,20.37012,21.78V62.80005a62.8051,62.8051,0,0,0-107.21-44.40991A62.40308,62.40308,0,0,0,3.75,62.80005V97.1499A73.53053,73.53053,0,0,1,24.12988,75.37012Z" style="fill:#3180f4"/><path d="M132.98,133.28a66.234,66.234,0,0,0-3.82031-18.65015c0-.00976-.00977-.02-.00977-.02978-.58008-1.61011-1.23-3.2002-1.93017-4.75-.02-.04-.04-.09009-.06006-.13013a66.57593,66.57593,0,0,0-121.21973-.01c-.02.05-.04.09009-.06006.14014-.70019,1.5498-1.35009,3.13989-1.93017,4.75-.00977.02-.00977.04-.02.05981A66.12146,66.12146,0,0,0,.11963,133.29Q.00025,135.23974,0,137.22A66.56036,66.56036,0,0,0,128.31982,162.03l.83008-2.17993A66.49715,66.49715,0,0,0,133.1001,137.22C133.1001,135.8999,133.06006,134.58008,132.98,133.28Zm-38.21,14.1499-.37012.98A30.00663,30.00663,0,0,1,36.5498,137.23c0-.6001.02-1.18994.0503-1.78a29.67166,29.67166,0,0,1,1.71972-8.3999.03137.03137,0,0,1,.00977-.02c.26025-.73.55029-1.45.87012-2.13989.01025-.03028.02-.04.03027-.07007A30.03811,30.03811,0,0,1,49.25,112.72a30.59851,30.59851,0,0,1,3.08984-1.91992,30.065,30.065,0,0,1,28.41993,0A30.80044,30.80044,0,0,1,83.85986,112.72a29.97669,29.97669,0,0,1,10.00977,12.11011l.03027.06006c.31983.68994.60987,1.40991.87012,2.13989l.00977.01A30.028,30.028,0,0,1,96.5,135.45c.02979.59009.0498,1.17993.0498,1.78A30.003,30.003,0,0,1,94.77,147.42993Z" style="fill:#3180f4"/></g></g></svg>