<svg width="71" height="60" viewBox="0 0 71 60" fill="none" xmlns="http://www.w3.org/2000/svg">
<path d="M10.6509 57.8739C5.48795 57.8739 1.2998 53.1528 1.2998 47.3329V14.7331C1.2998 8.91321 5.48795 4.19214 10.6509 4.19214H60.006C65.169 4.19214 69.3571 8.91321 69.3571 14.7331V47.3736C69.3571 53.1935 65.169 57.9146 60.006 57.9146H10.6509V57.8739Z" fill="#F9677C"/>
<path d="M60.0421 5.698C64.4468 5.698 68.0212 9.72718 68.0212 14.6924V47.3329C68.0212 52.2981 64.4468 56.3273 60.0421 56.3273H10.687C6.2822 56.3273 2.70785 52.2981 2.70785 47.3329V14.7331C2.70785 9.76787 6.2822 5.73869 10.687 5.73869H60.0421M60.0421 2.68628H10.687C4.80191 2.68628 0 8.09921 0 14.7331V47.3736C0 54.0075 4.80191 59.4205 10.687 59.4205H60.0421C65.9271 59.4205 70.729 54.0075 70.729 47.3736V14.7331C70.6929 8.05852 65.9271 2.68628 60.0421 2.68628Z" fill="white"/>
<path d="M37.9024 0H14.2538C11.7626 0 9.74072 2.27913 9.74072 5.08735V16.0353C9.74072 18.8435 11.7626 21.1227 14.2538 21.1227H37.8663C40.3575 21.1227 42.3793 18.8435 42.3793 16.0353V5.08735C42.4154 2.27913 40.3936 0 37.9024 0Z" fill="#F9677C"/>
<path d="M25.0207 45.3722C24.0459 45.3722 23.0711 45.0112 22.3129 44.253C20.8326 42.7727 20.8326 40.3537 22.3129 38.8373L42.9286 18.2215C44.4089 16.7413 46.8279 16.7413 48.3443 18.2215C49.8246 19.7018 49.8246 22.1209 48.3443 23.6372L27.7286 44.253C27.0065 45.0112 25.9955 45.3722 25.0207 45.3722Z" fill="#F43749"/>
<path d="M45.6726 45.3722C44.6978 45.3722 43.7229 45.0112 42.9647 44.253L22.349 23.6372C20.8687 22.157 20.8687 19.7379 22.349 18.2215C23.8293 16.7413 26.2483 16.7413 27.7647 18.2215L48.3804 38.8373C49.8607 40.3176 49.8607 42.7366 48.3804 44.253C47.6222 45.0112 46.6474 45.3722 45.6726 45.3722Z" fill="#F43749"/>
</svg>
