<svg width="197" height="147" viewBox="0 0 197 147" fill="none" xmlns="http://www.w3.org/2000/svg">
<path d="M30.1 143C15.8 143 4.19995 131.4 4.19995 117.1V37C4.19995 22.7 15.8 11.1 30.1 11.1H166.8C181.1 11.1 192.7 22.7 192.7 37V117.2C192.7 131.5 181.1 143.1 166.8 143.1H30.1V143Z" fill="#F9677C"/>
<path d="M166.9 14.8C179.1 14.8 189 24.7 189 36.9V117.1C189 129.3 179.1 139.2 166.9 139.2H30.2C18 139.2 8.09998 129.3 8.09998 117.1V37C8.09998 24.8 18 14.9 30.2 14.9H166.9M166.9 7.40002H30.2C13.9 7.40002 0.599976 20.7 0.599976 37V117.2C0.599976 133.5 13.9 146.8 30.2 146.8H166.9C183.2 146.8 196.5 133.5 196.5 117.2V37C196.4 20.6 183.2 7.40002 166.9 7.40002Z" fill="white"/>
<path d="M94.5 0.800049H29C22.1 0.800049 16.5 6.40005 16.5 13.3V40.2C16.5 47.1 22.1 52.7 29 52.7H94.4C101.3 52.7 106.9 47.1 106.9 40.2V13.3C107 6.40005 101.4 0.800049 94.5 0.800049Z" fill="#F9677C"/>
<path d="M69.9001 116.2C67.2001 116.2 64.5001 115.2 62.4001 113.1C58.3001 109 58.3001 102.3 62.4001 98.1L119.5 41C123.6 36.9 130.3 36.9 134.5 41C138.6 45.1 138.6 51.8 134.5 56L77.4001 113.1C75.4001 115.2 72.6001 116.2 69.9001 116.2Z" fill="#F43749"/>
<path d="M127.1 116.2C124.4 116.2 121.7 115.2 119.6 113.1L62.5 56C58.4 51.9 58.4 45.2 62.5 41C66.6 36.9 73.3 36.9 77.5 41L134.6 98.1C138.7 102.2 138.7 108.9 134.6 113.1C132.5 115.2 129.8 116.2 127.1 116.2Z" fill="#F43749"/>
</svg>
