<svg width="494" height="595" viewBox="0 0 494 595" fill="none" xmlns="http://www.w3.org/2000/svg">
<g clip-path="url(#clip0_6_2879)">
<path d="M-80 543.9L62.4 543.6C71.3 543.6 78.4 536.4 78.4 527.6V75.5C78.4 54.6 95.4 37.6 116.3 37.6L431.2 37.9C440.1 37.9 447.2 30.7 447.2 21.9V0" stroke="#B7B7B7" stroke-miterlimit="10"/>
<path d="M-80 588.9L87.1 588.6C108 588.6 125 571.6 125 550.7V98.6C125 89.7 132.2 82.6 141 82.6L168.5 82.9H460.7C478.3 82.9 492.6 68.6 492.6 51V2.5" stroke="#B7B7B7" stroke-miterlimit="10"/>
<path d="M70.5 594.5C73.5376 594.5 76 592.038 76 589C76 585.962 73.5376 583.5 70.5 583.5C67.4624 583.5 65 585.962 65 589C65 592.038 67.4624 594.5 70.5 594.5Z" fill="#FF0019"/>
<path d="M55.5 594.5C58.5376 594.5 61 592.038 61 589C61 585.962 58.5376 583.5 55.5 583.5C52.4624 583.5 50 585.962 50 589C50 592.038 52.4624 594.5 55.5 594.5Z" fill="#EAD94C"/>
<path d="M78.5 421.5C81.5376 421.5 84 419.038 84 416C84 412.962 81.5376 410.5 78.5 410.5C75.4624 410.5 73 412.962 73 416C73 419.038 75.4624 421.5 78.5 421.5Z" fill="#FF0019"/>
<path d="M125.5 280.5C128.538 280.5 131 278.038 131 275C131 271.962 128.538 269.5 125.5 269.5C122.462 269.5 120 271.962 120 275C120 278.038 122.462 280.5 125.5 280.5Z" fill="#FF0019"/>
<path d="M125.5 500.5C128.538 500.5 131 498.038 131 495C131 491.962 128.538 489.5 125.5 489.5C122.462 489.5 120 491.962 120 495C120 498.038 122.462 500.5 125.5 500.5Z" fill="#EAD94C"/>
<path d="M78.6001 105.9C81.6377 105.9 84.1001 103.437 84.1001 100.4C84.1001 97.3623 81.6377 94.8999 78.6001 94.8999C75.5625 94.8999 73.1001 97.3623 73.1001 100.4C73.1001 103.437 75.5625 105.9 78.6001 105.9Z" fill="#FF0019"/>
<path d="M78.6001 236.9C81.6377 236.9 84.1001 234.437 84.1001 231.4C84.1001 228.362 81.6377 225.9 78.6001 225.9C75.5625 225.9 73.1001 228.362 73.1001 231.4C73.1001 234.437 75.5625 236.9 78.6001 236.9Z" fill="#EAD94C"/>
<path d="M358.6 43.8999C361.638 43.8999 364.1 41.4375 364.1 38.3999C364.1 35.3623 361.638 32.8999 358.6 32.8999C355.563 32.8999 353.1 35.3623 353.1 38.3999C353.1 41.4375 355.563 43.8999 358.6 43.8999Z" fill="#EAD94C"/>
<path d="M203.6 89.8999C206.638 89.8999 209.1 87.4375 209.1 84.3999C209.1 81.3623 206.638 78.8999 203.6 78.8999C200.563 78.8999 198.1 81.3623 198.1 84.3999C198.1 87.4375 200.563 89.8999 203.6 89.8999Z" fill="#EAD94C"/>
<path d="M310.6 89.8999C313.638 89.8999 316.1 87.4375 316.1 84.3999C316.1 81.3623 313.638 78.8999 310.6 78.8999C307.563 78.8999 305.1 81.3623 305.1 84.3999C305.1 87.4375 307.563 89.8999 310.6 89.8999Z" fill="#FF0019"/>
</g>
<defs>
<clipPath id="clip0_6_2879">
<rect width="573.1" height="594.5" fill="white" transform="translate(-80)"/>
</clipPath>
</defs>
</svg>
