<svg width="1180" height="1524" viewBox="0 0 1180 1524" fill="none" xmlns="http://www.w3.org/2000/svg">
<path d="M64.7 0L65 142.4C65 151.3 72.2 158.4 81 158.4H1105.1C1126 158.4 1143 175.4 1143 196.3L1142.7 511.2C1142.7 520.1 1149.9 527.2 1158.7 527.2H1180.5" stroke="#B7B7B7" stroke-miterlimit="10"/>
<path d="M0.699951 0L0.999951 167.1C0.999951 188 18 205 38.9 205H1063C1071.9 205 1079 212.2 1079 221L1078.7 1080V1490.7C1078.7 1508.3 1093 1522.6 1110.6 1522.6H1159" stroke="#B7B7B7" stroke-miterlimit="10"/>
<path d="M65.2 42C68.2375 42 70.7 39.5376 70.7 36.5C70.7 33.4624 68.2375 31 65.2 31C62.1624 31 59.7 33.4624 59.7 36.5C59.7 39.5376 62.1624 42 65.2 42Z" fill="#FF0019"/>
<path d="M19.5 156C22.5376 156 25 153.538 25 150.5C25 147.462 22.5376 145 19.5 145C16.4624 145 14 147.462 14 150.5C14 153.538 16.4624 156 19.5 156Z" fill="#FF0019"/>
<path d="M19.5 141C22.5376 141 25 138.538 25 135.5C25 132.462 22.5376 130 19.5 130C16.4624 130 14 132.462 14 135.5C14 138.538 16.4624 141 19.5 141Z" fill="#EAD94C"/>
<path d="M192.5 164C195.538 164 198 161.538 198 158.5C198 155.462 195.538 153 192.5 153C189.462 153 187 155.462 187 158.5C187 161.538 189.462 164 192.5 164Z" fill="#FF0019"/>
<path d="M333.5 211C336.538 211 339 208.538 339 205.5C339 202.462 336.538 200 333.5 200C330.462 200 328 202.462 328 205.5C328 208.538 330.462 211 333.5 211Z" fill="#FF0019"/>
<path d="M1064.5 164C1067.54 164 1070 161.538 1070 158.5C1070 155.462 1067.54 153 1064.5 153C1061.46 153 1059 155.462 1059 158.5C1059 161.538 1061.46 164 1064.5 164Z" fill="#EAD94C"/>
<path d="M1142.2 305C1145.24 305 1147.7 302.538 1147.7 299.5C1147.7 296.462 1145.24 294 1142.2 294C1139.16 294 1136.7 296.462 1136.7 299.5C1136.7 302.538 1139.16 305 1142.2 305Z" fill="#FF0019"/>
<path d="M1098.2 499C1101.24 499 1103.7 496.538 1103.7 493.5C1103.7 490.462 1101.24 488 1098.2 488C1095.16 488 1092.7 490.462 1092.7 493.5C1092.7 496.538 1095.16 499 1098.2 499Z" fill="#FF0019"/>
<path d="M1097.2 848C1100.24 848 1102.7 845.538 1102.7 842.5C1102.7 839.462 1100.24 837 1097.2 837C1094.16 837 1091.7 839.462 1091.7 842.5C1091.7 845.538 1094.16 848 1097.2 848Z" fill="#FF0019"/>
<path d="M113.5 211C116.538 211 119 208.538 119 205.5C119 202.462 116.538 200 113.5 200C110.462 200 108 202.462 108 205.5C108 208.538 110.462 211 113.5 211Z" fill="#EAD94C"/>
<path d="M398.5 164C401.538 164 404 161.538 404 158.5C404 155.462 401.538 153 398.5 153C395.462 153 393 155.462 393 158.5C393 161.538 395.462 164 398.5 164Z" fill="#EAD94C"/>
<path d="M1098.2 263C1101.24 263 1103.7 260.538 1103.7 257.5C1103.7 254.462 1101.24 252 1098.2 252C1095.16 252 1092.7 254.462 1092.7 257.5C1092.7 260.538 1095.16 263 1098.2 263Z" fill="#EAD94C"/>
<path d="M1142.2 436C1145.24 436 1147.7 433.538 1147.7 430.5C1147.7 427.462 1145.24 425 1142.2 425C1139.16 425 1136.7 427.462 1136.7 430.5C1136.7 433.538 1139.16 436 1142.2 436Z" fill="#EAD94C"/>
<path d="M1097.2 820C1100.24 820 1102.7 817.538 1102.7 814.5C1102.7 811.462 1100.24 809 1097.2 809C1094.16 809 1091.7 811.462 1091.7 814.5C1091.7 817.538 1094.16 820 1097.2 820Z" fill="#EAD94C"/>
<path d="M1097.5 1248C1100.54 1248 1103 1245.54 1103 1242.5C1103 1239.46 1100.54 1237 1097.5 1237C1094.46 1237 1092 1239.46 1092 1242.5C1092 1245.54 1094.46 1248 1097.5 1248Z" fill="#FF0019"/>
<path d="M1097.5 1300C1100.54 1300 1103 1297.54 1103 1294.5C1103 1291.46 1100.54 1289 1097.5 1289C1094.46 1289 1092 1291.46 1092 1294.5C1092 1297.54 1094.46 1300 1097.5 1300Z" fill="#EAD94C"/>
<path d="M525.5 211C528.538 211 531 208.538 531 205.5C531 202.462 528.538 200 525.5 200C522.462 200 520 202.462 520 205.5C520 208.538 522.462 211 525.5 211Z" fill="#EAD94C"/>
<path d="M1001.5 163C1004.54 163 1007 160.538 1007 157.5C1007 154.462 1004.54 152 1001.5 152C998.462 152 996 154.462 996 157.5C996 160.538 998.462 163 1001.5 163Z" fill="#FF0019"/>
<path d="M731.5 211C734.538 211 737 208.538 737 205.5C737 202.462 734.538 200 731.5 200C728.462 200 726 202.462 726 205.5C726 208.538 728.462 211 731.5 211Z" fill="#FF0019"/>
<path d="M845.5 211C848.538 211 851 208.538 851 205.5C851 202.462 848.538 200 845.5 200C842.462 200 840 202.462 840 205.5C840 208.538 842.462 211 845.5 211Z" fill="#EAD94C"/>
<path d="M636.5 164C639.538 164 642 161.538 642 158.5C642 155.462 639.538 153 636.5 153C633.462 153 631 155.462 631 158.5C631 161.538 633.462 164 636.5 164Z" fill="#FF0019"/>
</svg>
