<svg width="860" height="310" viewBox="0 0 860 310" fill="none" xmlns="http://www.w3.org/2000/svg">
<path d="M818.2 305.3H-64V304.3H818.2C840.2 304.3 858.2 286.4 858.2 264.3V164.3C858.2 143.7 841.4 126.9 820.8 126.9H340.7C331.6 126.9 324.2 119.5 324.2 110.4V0H325.2V110.4C325.2 119 332.2 125.9 340.7 125.9H820.8C842 125.9 859.2 143.1 859.2 164.3V264.3C859.2 287 840.8 305.3 818.2 305.3Z" fill="#B7B7B7"/>
<path d="M801.2 257.5H-64V256.5H801.2C807.8 256.5 813.1 251.1 813.1 244.6V189C813.1 180.4 806.1 173.5 797.6 173.5H317.5C296.3 173.5 279.1 156.3 279.1 135.1V0H280.1V135.1C280.1 155.7 296.9 172.5 317.5 172.5H797.6C806.7 172.5 814.1 179.9 814.1 189V244.5C814.2 251.7 808.4 257.5 801.2 257.5Z" fill="#B7B7B7"/>
<path d="M325.2 42C328.238 42 330.7 39.5376 330.7 36.5C330.7 33.4624 328.238 31 325.2 31C322.162 31 319.7 33.4624 319.7 36.5C319.7 39.5376 322.162 42 325.2 42Z" fill="#FF0019"/>
<path d="M279.2 126C282.238 126 284.7 123.538 284.7 120.5C284.7 117.462 282.238 115 279.2 115C276.162 115 273.7 117.462 273.7 120.5C273.7 123.538 276.162 126 279.2 126Z" fill="#FF0019"/>
<path d="M279.2 98C282.238 98 284.7 95.5376 284.7 92.5C284.7 89.4624 282.238 87 279.2 87C276.162 87 273.7 89.4624 273.7 92.5C273.7 95.5376 276.162 98 279.2 98Z" fill="#EAD94C"/>
<path d="M485.2 132C488.238 132 490.7 129.538 490.7 126.5C490.7 123.462 488.238 121 485.2 121C482.162 121 479.7 123.462 479.7 126.5C479.7 129.538 482.162 132 485.2 132Z" fill="#FF0019"/>
<path d="M593.2 179C596.238 179 598.7 176.538 598.7 173.5C598.7 170.462 596.238 168 593.2 168C590.162 168 587.7 170.462 587.7 173.5C587.7 176.538 590.162 179 593.2 179Z" fill="#FF0019"/>
<path d="M780.2 132C783.238 132 785.7 129.538 785.7 126.5C785.7 123.462 783.238 121 780.2 121C777.162 121 774.7 123.462 774.7 126.5C774.7 129.538 777.162 132 780.2 132Z" fill="#FF0019"/>
<path d="M373.2 179C376.238 179 378.7 176.538 378.7 173.5C378.7 170.462 376.238 168 373.2 168C370.162 168 367.7 170.462 367.7 173.5C367.7 176.538 370.162 179 373.2 179Z" fill="#EAD94C"/>
<path d="M658.2 132C661.238 132 663.7 129.538 663.7 126.5C663.7 123.462 661.238 121 658.2 121C655.162 121 652.7 123.462 652.7 126.5C652.7 129.538 655.162 132 658.2 132Z" fill="#EAD94C"/>
<path d="M567.2 179C570.238 179 572.7 176.538 572.7 173.5C572.7 170.462 570.238 168 567.2 168C564.162 168 561.7 170.462 561.7 173.5C561.7 176.538 564.162 179 567.2 179Z" fill="#EAD94C"/>
<path d="M16.5 262C19.5376 262 22 259.538 22 256.5C22 253.462 19.5376 251 16.5 251C13.4624 251 11 253.462 11 256.5C11 259.538 13.4624 262 16.5 262Z" fill="#FF0019"/>
<path d="M305.5 262C308.538 262 311 259.538 311 256.5C311 253.462 308.538 251 305.5 251C302.462 251 300 253.462 300 256.5C300 259.538 302.462 262 305.5 262Z" fill="#FF0019"/>
<path d="M211.5 262C214.538 262 217 259.538 217 256.5C217 253.462 214.538 251 211.5 251C208.462 251 206 253.462 206 256.5C206 259.538 208.462 262 211.5 262Z" fill="#EAD94C"/>
<path d="M325.5 262C328.538 262 331 259.538 331 256.5C331 253.462 328.538 251 325.5 251C322.462 251 320 253.462 320 256.5C320 259.538 322.462 262 325.5 262Z" fill="#EAD94C"/>
<path d="M813.5 221C816.538 221 819 218.538 819 215.5C819 212.462 816.538 210 813.5 210C810.462 210 808 212.462 808 215.5C808 218.538 810.462 221 813.5 221Z" fill="#EAD94C"/>
<path d="M616.5 310C619.538 310 622 307.538 622 304.5C622 301.462 619.538 299 616.5 299C613.462 299 611 301.462 611 304.5C611 307.538 613.462 310 616.5 310Z" fill="#EAD94C"/>
<path d="M785.5 262C788.538 262 791 259.538 791 256.5C791 253.462 788.538 251 785.5 251C782.462 251 780 253.462 780 256.5C780 259.538 782.462 262 785.5 262Z" fill="#FF0019"/>
<path d="M425.5 310C428.538 310 431 307.538 431 304.5C431 301.462 428.538 299 425.5 299C422.462 299 420 301.462 420 304.5C420 307.538 422.462 310 425.5 310Z" fill="#FF0019"/>
</svg>
