<svg width="594" height="1481" viewBox="0 0 594 1481" fill="none" xmlns="http://www.w3.org/2000/svg">
<path d="M594.5 484.7H572.7C563.6 484.7 556.2 477.3 556.2 468.2L556.5 153.3C556.5 132.7 539.7 115.9 519.1 115.9H67C57.9 115.9 50.5 108.5 50.5 99.4L50.2 -43H51.2L51.5 99.4C51.5 108 58.5 114.9 67 114.9H519.1C540.3 114.9 557.5 132.1 557.5 153.3L557.2 468.2C557.2 476.8 564.2 483.7 572.7 483.7H594.5V484.7Z" fill="#B7B7B7"/>
<path d="M592 1480.1H543.6C525.7 1480.1 511.2 1465.6 511.2 1447.7V1037L511.5 178C511.5 169.4 504.5 162.5 496 162.5H43.9C22.7 162.5 5.5 145.3 5.5 124.1L5.19995 -43H6.19995L6.5 124.1C6.5 144.7 23.3 161.5 43.9 161.5H496C505.1 161.5 512.5 168.9 512.5 178L512.2 1037V1447.7C512.2 1465 526.3 1479.1 543.6 1479.1H592V1480.1Z" fill="#B7B7B7"/>
<path d="M5.5 113C8.53757 113 11 110.538 11 107.5C11 104.462 8.53757 102 5.5 102C2.46243 102 0 104.462 0 107.5C0 110.538 2.46243 113 5.5 113Z" fill="#FF0019"/>
<path d="M5.5 98C8.53757 98 11 95.5376 11 92.5C11 89.4624 8.53757 87 5.5 87C2.46243 87 0 89.4624 0 92.5C0 95.5376 2.46243 98 5.5 98Z" fill="#EAD94C"/>
<path d="M178.5 121C181.538 121 184 118.538 184 115.5C184 112.462 181.538 110 178.5 110C175.462 110 173 112.462 173 115.5C173 118.538 175.462 121 178.5 121Z" fill="#FF0019"/>
<path d="M319.5 168C322.538 168 325 165.538 325 162.5C325 159.462 322.538 157 319.5 157C316.462 157 314 159.462 314 162.5C314 165.538 316.462 168 319.5 168Z" fill="#FF0019"/>
<path d="M478.5 121C481.538 121 484 118.538 484 115.5C484 112.462 481.538 110 478.5 110C475.462 110 473 112.462 473 115.5C473 118.538 475.462 121 478.5 121Z" fill="#FF0019"/>
<path d="M556.2 262C559.238 262 561.7 259.538 561.7 256.5C561.7 253.462 559.238 251 556.2 251C553.162 251 550.7 253.462 550.7 256.5C550.7 259.538 553.162 262 556.2 262Z" fill="#FF0019"/>
<path d="M512.2 456C515.238 456 517.7 453.538 517.7 450.5C517.7 447.462 515.238 445 512.2 445C509.162 445 506.7 447.462 506.7 450.5C506.7 453.538 509.162 456 512.2 456Z" fill="#FF0019"/>
<path d="M511.2 805C514.238 805 516.7 802.538 516.7 799.5C516.7 796.462 514.238 794 511.2 794C508.162 794 505.7 796.462 505.7 799.5C505.7 802.538 508.162 805 511.2 805Z" fill="#FF0019"/>
<path d="M99.5 168C102.538 168 105 165.538 105 162.5C105 159.462 102.538 157 99.5 157C96.4624 157 94 159.462 94 162.5C94 165.538 96.4624 168 99.5 168Z" fill="#EAD94C"/>
<path d="M384.5 121C387.538 121 390 118.538 390 115.5C390 112.462 387.538 110 384.5 110C381.462 110 379 112.462 379 115.5C379 118.538 381.462 121 384.5 121Z" fill="#EAD94C"/>
<path d="M512.2 220C515.238 220 517.7 217.538 517.7 214.5C517.7 211.462 515.238 209 512.2 209C509.162 209 506.7 211.462 506.7 214.5C506.7 217.538 509.162 220 512.2 220Z" fill="#EAD94C"/>
<path d="M511.2 777C514.238 777 516.7 774.538 516.7 771.5C516.7 768.462 514.238 766 511.2 766C508.162 766 505.7 768.462 505.7 771.5C505.7 774.538 508.162 777 511.2 777Z" fill="#EAD94C"/>
<path d="M511.5 1205C514.538 1205 517 1202.54 517 1199.5C517 1196.46 514.538 1194 511.5 1194C508.462 1194 506 1196.46 506 1199.5C506 1202.54 508.462 1205 511.5 1205Z" fill="#FF0019"/>
<path d="M511.5 1257C514.538 1257 517 1254.54 517 1251.5C517 1248.46 514.538 1246 511.5 1246C508.462 1246 506 1248.46 506 1251.5C506 1254.54 508.462 1257 511.5 1257Z" fill="#EAD94C"/>
</svg>
