<svg width="285" height="335" viewBox="0 0 285 335" fill="none" xmlns="http://www.w3.org/2000/svg">
<g filter="url(#filter0_d_122_2)">
<g clip-path="url(#clip0_122_2)">
<path d="M265.9 101.4V168C258 148.7 244.9 132.1 227.7 119.9C227.4 119.7 227.1 119.4 226.7 119.2V101.3C226.7 67 198.8 39.1 164.5 39.1C130.2 39.1 102.3 67 102.3 101.3V119.1C102 119.3 101.6 119.5 101.3 119.8C84.0999 132.1 70.8999 148.7 63.0999 168V101.4C63.0999 74.3 73.5999 48.9 92.7999 29.7C111.9 10.6 137.4 0 164.5 0C191.6 0 217.1 10.6 236.2 29.7C255.3 48.9 265.9 74.3 265.9 101.4Z" fill="#3180F4"/>
<path d="M265.6 182.2C262.6 173.8 258.5 166 253.7 158.7C255.9 162.5 257.8 166.5 259.5 170.6L269.3 194.8C268.3 190.5 267 186.3 265.6 182.2ZM59.7 194.9L69.6 170.7C71.3 166.5 73.3 162.5 75.5 158.6C70.6 165.9 66.5 173.8 63.5 182.2C61.9 186.3 60.6 190.6 59.7 194.9Z" fill="#3180F4"/>
<path d="M271.9 218.7C271.9 231.5 269.7 243.8 265.5 255.2L264.2 258.7C248.3 298.2 209.6 326.1 164.4 326.1C105.1 326.2 57 278.1 57 218.7C57 210.5 57.9 202.6 59.7 194.9C60.7 190.6 61.9 186.3 63.4 182.2C66.4 173.8 70.5 165.9 75.4 158.6C82.7 147.8 91.9 138.4 102.5 130.9C120 118.5 141.4 111.2 164.5 111.2C187.6 111.2 209 118.5 226.5 130.9C237.1 138.4 246.4 147.8 253.7 158.7C258.6 165.9 262.6 173.8 265.6 182.2C267.1 186.3 268.3 190.5 269.3 194.8C271 202.5 271.9 210.5 271.9 218.7Z" fill="#3180F4"/>
</g>
<g clip-path="url(#clip1_122_2)">
<path opacity="0.5" d="M24 203L94 279L256 81" stroke="#1CEA66" stroke-width="40" stroke-miterlimit="10" stroke-linecap="round" stroke-linejoin="round"/>
<path d="M29 191L99 267L261 69" stroke="#1CEA66" stroke-width="40" stroke-miterlimit="10" stroke-linecap="round" stroke-linejoin="round"/>
</g>
</g>
<defs>
<filter id="filter0_d_122_2" x="0" y="0" width="285" height="334.2" filterUnits="userSpaceOnUse" color-interpolation-filters="sRGB">
<feFlood flood-opacity="0" result="BackgroundImageFix"/>
<feColorMatrix in="SourceAlpha" type="matrix" values="0 0 0 0 0 0 0 0 0 0 0 0 0 0 0 0 0 0 127 0" result="hardAlpha"/>
<feOffset dy="4"/>
<feGaussianBlur stdDeviation="2"/>
<feComposite in2="hardAlpha" operator="out"/>
<feColorMatrix type="matrix" values="0 0 0 0 0 0 0 0 0 0 0 0 0 0 0 0 0 0 0.25 0"/>
<feBlend mode="normal" in2="BackgroundImageFix" result="effect1_dropShadow_122_2"/>
<feBlend mode="normal" in="SourceGraphic" in2="effect1_dropShadow_122_2" result="shape"/>
</filter>
<clipPath id="clip0_122_2">
<rect width="214.9" height="326.2" fill="white" transform="translate(57)"/>
</clipPath>
<clipPath id="clip1_122_2">
<rect width="277" height="250" fill="white" transform="translate(4 49)"/>
</clipPath>
</defs>
</svg>
