<svg width="148" height="216" viewBox="0 0 148 216" fill="none" xmlns="http://www.w3.org/2000/svg">
<path d="M7.39999 69.8C7.39999 52.1 14.3 35.4 26.8 22.9C39.3 10.4 56 3.5 73.7 3.5C91.4 3.5 108.1 10.4 120.6 22.9C133.1 35.4 140 52.1 140 69.8V128.9L133.3 112.3C128.7 100.9 120.9 91.2 110.8 84.1C110.6 84 110.5 83.8999 110.3 83.7L108.7 82.7V69.8C108.7 50.5 93 34.8 73.7 34.8C54.4 34.8 38.7 50.5 38.7 69.8V82.7L37.1 83.7C36.9 83.7999 36.8 83.9 36.6 84.1C26.5 91.2 18.8 101 14.1 112.3L7.39999 128.9V69.8Z" fill="#6387FC"/>
<path d="M73.7 7C90.5 7 106.2 13.5 118.1 25.4C130 37.3 136.5 53 136.5 69.8V111C131.6 99 123.5 88.7999 112.8 81.2C112.6 81.1 112.4 80.9 112.2 80.8V69.7C112.2 48.5 94.9 31.2 73.7 31.2C52.5 31.2 35.2 48.5 35.2 69.7V80.7C35 80.7999 34.8 81 34.6 81.1C23.9 88.6 15.8 98.9 10.9 110.9V69.6C10.9 52.8 17.4 37.1 29.3 25.2C41.1 13.5 56.9 7 73.7 7ZM73.7 0C55.1 0 37.5 7.30002 24.3 20.4C11.1 33.5 3.89999 51.1 3.89999 69.8V111.1V146.9L17.4 113.8C21.8 103.1 29.1 93.8 38.6 87.1C38.7 87 38.9 86.9 39 86.8L42.2 84.7V80.9V69.9C42.2 52.5 56.3 38.4 73.7 38.4C91.1 38.4 105.2 52.5 105.2 69.9V81V84.8L108.4 86.9C108.5 87 108.7 87.1 108.8 87.2C118.3 93.8999 125.6 103.1 130 113.9L143.5 147V111V69.8C143.5 51.2001 136.2 33.6 123.1 20.4C110 7.20002 92.3 0 73.7 0Z" fill="white"/>
<path d="M73.7 212.5C35.1 212.5 3.70001 181.1 3.70001 142.5C3.70001 134.3 5.09999 126.3 7.89999 118.7C12.8 105.2 21.6 93.6 33.4 85.3C45.3 76.9 59.2 72.5 73.8 72.5C88.4 72.5 102.3 76.9 114.2 85.3C126 93.6 134.8 105.2 139.7 118.7C142.5 126.3 143.9 134.3 143.9 142.5C143.9 150.7 142.5 158.7 139.7 166.3L138.8 168.5C128 195.3 102.5 212.5 73.7 212.5Z" fill="#6387FC"/>
<path d="M73.7 75.9C88 75.9 101.2 80.4 112.1 88.1C123.1 95.9 131.7 106.9 136.3 119.8C138.9 126.9 140.2 134.5 140.2 142.4C140.2 150.3 138.8 158 136.3 165L135.5 167.2C125.7 191.7 101.7 208.9 73.7 208.9C37 208.9 7.20001 179.1 7.20001 142.4C7.20001 134.5 8.60001 126.8 11.1 119.8C15.8 106.9 24.3 95.8 35.3 88.1C46.2 80.4 59.4 75.9 73.7 75.9ZM73.7 68.9C58.4 68.9 43.7 73.6 31.3 82.4C18.9 91.2 9.7 103.3 4.5 117.5C1.6 125.5 0.100006 133.9 0.100006 142.5C0.100006 183.1 33.1 216 73.6 216C88.6 216 103 211.5 115.3 203.1C127.3 194.8 136.5 183.4 141.9 169.9V169.8V169.7L142.7 167.5V167.4V167.3C145.6 159.3 147.1 150.9 147.1 142.3C147.1 133.7 145.6 125.3 142.7 117.3C137.6 103.1 128.3 91 115.9 82.2C103.7 73.6 89 68.9 73.7 68.9Z" fill="white"/>
</svg>
