<svg width="178" height="178" viewBox="0 0 178 178" fill="none" xmlns="http://www.w3.org/2000/svg">
<g clip-path="url(#clip0_5_1089)">
<path d="M74.5 108.7L75.5 103.5H86.3L92.2 74.2H91.8L80.9 84L77.5 80.5L89.4 69.7H99L92.2 103.6H101.6L100.6 108.8H74.5V108.7Z" fill="#41AD78"/>
<path d="M88.8 174.1C41.8 174.1 3.5 135.8 3.5 88.8C3.5 41.8 41.8 3.5 88.8 3.5C135.8 3.5 174.1 41.8 174.1 88.8C174.1 135.9 135.9 174.1 88.8 174.1ZM88.8 20.8C51.3 20.8 20.8 51.3 20.8 88.8C20.8 126.3 51.3 156.8 88.8 156.8C126.3 156.8 156.8 126.3 156.8 88.8C156.8 51.3 126.3 20.8 88.8 20.8Z" fill="#41AD78"/>
<path d="M88.8 7C133.9 7 170.6 43.7 170.6 88.8C170.6 133.9 133.9 170.6 88.8 170.6C43.7 170.6 7 133.9 7 88.8C7 43.7 43.7 7 88.8 7ZM88.8 160.3C128.3 160.3 160.3 128.3 160.3 88.8C160.3 49.3 128.3 17.3 88.8 17.3C49.3 17.3 17.3 49.3 17.3 88.8C17.3 128.3 49.3 160.3 88.8 160.3ZM88.8 0C39.8 0 0 39.8 0 88.8C0 137.8 39.8 177.6 88.8 177.6C137.8 177.6 177.6 137.8 177.6 88.8C177.6 39.8 137.8 0 88.8 0ZM88.8 153.3C53.2 153.3 24.3 124.4 24.3 88.8C24.3 53.2 53.2 24.3 88.8 24.3C124.4 24.3 153.3 53.2 153.3 88.8C153.3 124.4 124.4 153.3 88.8 153.3Z" fill="white"/>
<path d="M160.3 88.8C160.3 128.3 128.3 160.3 88.8 160.3C49.3 160.3 17.3 128.3 17.3 88.8C17.3 49.3 49.3 17.3 88.8 17.3C128.3 17.3 160.3 49.3 160.3 88.8Z" fill="white"/>
<path d="M88.8 44.8C87 44.8 85.5 43.3 85.5 41.5V31.7C85.5 29.9 87 28.4 88.8 28.4C90.6 28.4 92.1 29.9 92.1 31.7V41.5C92.1 43.4 90.6 44.8 88.8 44.8Z" fill="#41AD78"/>
<path d="M88.8 149.1C87 149.1 85.5 147.6 85.5 145.8V136C85.5 134.2 87 132.7 88.8 132.7C90.6 132.7 92.1 134.2 92.1 136V145.8C92.1 147.7 90.6 149.1 88.8 149.1Z" fill="#41AD78"/>
<path d="M41.6 92.1H31.8C30 92.1 28.5 90.6 28.5 88.8C28.5 87 30 85.5 31.8 85.5H41.6C43.4 85.5 44.9 87 44.9 88.8C44.9 90.6 43.4 92.1 41.6 92.1Z" fill="#41AD78"/>
<path d="M145.9 92.1H136.1C134.3 92.1 132.8 90.6 132.8 88.8C132.8 87 134.3 85.5 136.1 85.5H145.9C147.7 85.5 149.2 87 149.2 88.8C149.2 90.6 147.7 92.1 145.9 92.1Z" fill="#41AD78"/>
<path d="M72.5 108.2L73.6 102.6H85.1L91.5 71.2H91L79.4 81.6L75.8 77.8L88.5 66.2H98.8L91.5 102.5H101.5L100.5 108.1H72.5V108.2Z" fill="#41AD78"/>
</g>
<defs>
<clipPath id="clip0_5_1089">
<rect width="177.6" height="177.6" fill="white"/>
</clipPath>
</defs>
</svg>
