<svg width="178" height="179" viewBox="0 0 178 179" fill="none" xmlns="http://www.w3.org/2000/svg">
<path d="M89.2 174.8C42.2 174.8 3.90002 136.5 3.90002 89.5C3.90002 42.5 42.2 4.19995 89.2 4.19995C136.2 4.19995 174.5 42.5 174.5 89.5C174.5 136.5 136.2 174.8 89.2 174.8ZM89.2 21.4C51.7 21.4 21.2 51.9 21.2 89.4C21.2 126.9 51.7 157.4 89.2 157.4C126.7 157.4 157.2 126.9 157.2 89.4C157.2 51.9 126.7 21.4 89.2 21.4Z" fill="#F9DB5D"/>
<path d="M89.2 7.59998C134.3 7.59998 171 44.3 171 89.4C171 134.5 134.3 171.2 89.2 171.2C44.1 171.2 7.40002 134.5 7.40002 89.4C7.40002 44.3 44.1 7.59998 89.2 7.59998ZM89.2 161C128.7 161 160.7 129 160.7 89.5C160.7 50 128.7 18 89.2 18C49.7 18 17.7 50 17.7 89.5C17.7 129 49.7 161 89.2 161ZM89.2 0.599976C40.2 0.599976 0.400024 40.4 0.400024 89.4C0.400024 138.4 40.2 178.2 89.2 178.2C138.2 178.2 178 138.4 178 89.4C178 40.5 138.2 0.599976 89.2 0.599976ZM89.2 154C53.6 154 24.7 125.1 24.7 89.5C24.7 53.9 53.6 25 89.2 25C124.8 25 153.7 53.9 153.7 89.5C153.7 125 124.8 154 89.2 154Z" fill="white"/>
<path d="M160.7 89.5C160.7 129 128.7 161 89.2 161C49.7 161 17.7 129 17.7 89.5C17.7 50 49.7 18 89.2 18C128.7 17.9 160.7 50 160.7 89.5Z" fill="white"/>
<path d="M89.2 45.5C87.4 45.5 85.9 44 85.9 42.2V32.4C85.9 30.6 87.4 29.1 89.2 29.1C91 29.1 92.5 30.6 92.5 32.4V42.2C92.5 44 91 45.5 89.2 45.5Z" fill="#F9DB5D"/>
<path d="M89.2 149.8C87.4 149.8 85.9 148.3 85.9 146.5V136.7C85.9 134.9 87.4 133.4 89.2 133.4C91 133.4 92.5 134.9 92.5 136.7V146.5C92.5 148.3 91 149.8 89.2 149.8Z" fill="#F9DB5D"/>
<path d="M41.9 92.7H32.1C30.3 92.7 28.8 91.2 28.8 89.4C28.8 87.6 30.3 86.1 32.1 86.1H41.9C43.7 86.1 45.2 87.6 45.2 89.4C45.2 91.2 43.7 92.7 41.9 92.7Z" fill="#F9DB5D"/>
<path d="M146.2 92.7H136.4C134.6 92.7 133.1 91.2 133.1 89.4C133.1 87.6 134.6 86.1 136.4 86.1H146.2C148 86.1 149.5 87.6 149.5 89.4C149.5 91.2 148.1 92.7 146.2 92.7Z" fill="#F9DB5D"/>
<path d="M72.9 108.8L74 103.2H85.5L91.9 71.8H91.4L79.8 82.2L76.2 78.4L88.9 66.8H99.2L91.9 103.1H101.9L100.9 108.7H72.9V108.8Z" fill="#F9DB5D"/>
</svg>
